# xmcd CD database file
#
# Track frame offsets:
#	151
#	13686
#	25298
#	45358
#	61462
#	75178
#	87471
#	100744
#	117640
#	131215
#	150786
#	162830
#
# Disc length: 2459 seconds
#
# Revision: 0
# Processed by: cddbd v1.5.2PL0 Copyright (c) Steve Scherf et al.
# Submitted via: CDex 1.70beta2
#
DISCID=8909990c
DTITLE=Bob Pearce - Unchained
DYEAR=2006
DGENRE=Blues
TTITLE0=Come On In
TTITLE1=Just To Think
TTITLE2=What Am I Living For
TTITLE3=Wings Of An Angel
TTITLE4=Call Him Up
TTITLE5=Let Your Glory Fill This House
TTITLE6=Don't Turn Around
TTITLE7=Let Your Light Shine On Me
TTITLE8=All For Me
TTITLE9=Presence Of The Lord
TTITLE10=Jesus The King
TTITLE11=Unchained
EXTD=YEAR: 2006
EXTT0=
EXTT1=
EXTT2=
EXTT3=
EXTT4=
EXTT5=
EXTT6=
EXTT7=
EXTT8=
EXTT9=
EXTT10=
EXTT11=
PLAYORDER=
